# xmcd
#
# Track frame offsets:
#	150
#	12157
#	25027
#	36196
#	49818
#	59489
#	72873
#	81767
#	95619
#	110382
#	126330
#	137872
#	161210
#	179693
#	191221
#	204532
#	220198
#	230560
#	244144
#	262918
#
# Disc length: 3717 seconds
#
# Revision: 0
# Processed by: cddbd v1.5.2PL0 Copyright (c) Steve Scherf et al.
# Submitted via: EasyCDDAExtractor 16.0.8.2
#
DISCID=290e8314
DTITLE=Συλλογικός δίσκος - Όλα τα ρεμπέτικα 17
DYEAR=2008
DGENRE=Παραδοσιακή
TTITLE0=Μπέλλου Σωτηρία - Σκανταλιάρα (Τέτοια κούκλα και τσαχπίνα)[Χρ.Κολοκοτρ
TTITLE0=ώνης]
TTITLE1=Κοντογιάννης Δημήτρης-Δημητριανάκης Μανώλης - Το οργανάκι [Γ. Μητσάκης
TTITLE1=]
TTITLE2=Γλυκερία - Φτώχεια μαζί με την τιμή [Παν. Τούντας]
TTITLE3=Ιακωβίδης Αγάθωνας - Μη μού λες γιατί ξεχνάω [Κ. Σκαρβέλης]
TTITLE4=Τσαουσάκης Πρόδρομος - Σ' ένα βαγόνι κάθομαι [Πρ. Τσαουσάκης]
TTITLE5=Περγιάλης Νίκος - Το κορόϊδο [Μ. Βαμβακάρης]
TTITLE6=Λεμπέσης Γιάννης - Αφήστε όλα τα ψεύτικα [Γ. Λεμπέσης]
TTITLE7=Χαλκιάς Θανάσης - Άη Νικόλας [Β. Τσιτσάνης]
TTITLE8=Γκολές Μπάμπης - Χαράμισα τα νιάτα μου [Ιάκ. Μοντανάρης]
TTITLE9=Μαριώ - Μεράκι [Στ. Παντελίδης]
TTITLE10=Ευσταθίου Δημήτρης - Μη μού πατάτε το ζωνάρι [Δ. Ευσταθίου]
TTITLE11=Βουτσελά Βιβή - Ελενίτσα [Γ. Δραγάτσης ή Ογδοντάκης]
TTITLE12=Χατζηαντωνίου Γιώργος - Το συμφέρον [Αργ. Βαμβακάρης-Μ. Βαμβακάρης]
TTITLE13=Ναλμπάντη Μαρία - Κλείσε με, φυλάκισέ με [Μ. Γενίτσαρης]
TTITLE14=Μητσάκης Γιώργος - Ο χαρτοπαίκτης [Γ. Μητσάκης]
TTITLE15=Κιουπρούλης Στέφανος ή Χοντρονάκος - Βράδιασε μέσ' στο Γεντί Κουλέ [Γ
TTITLE15=Μητσάκης]
TTITLE16=Μουφλουζέλης Γιώργος - Τώρα που είμαι στις καλές μου [Γ.Μουφλουζέλης]
TTITLE17=Δασκαλάκης Μιχάλης - Βάρκα μου μπογιατισμένη [Γ. Μπάτης]
TTITLE18=Μπέζος Κώστας ή Κωστής Α. - Η φυλακή είναι σχολείο [Α. Κωστής]
TTITLE19=Μοσχονάς Οδυσσέας-Ευγενικός Αθανάσιος - Εσύ θα μετανοιώσεις [Γ. Παπαϊ
TTITLE19=ωάννου]
EXTD=
EXTT0=
EXTT1=
EXTT2=
EXTT3=
EXTT4=
EXTT5=
EXTT6=
EXTT7=
EXTT8=
EXTT9=
EXTT10=
EXTT11=
EXTT12=
EXTT13=
EXTT14=
EXTT15=
EXTT16=
EXTT17=
EXTT18=
EXTT19=
PLAYORDER=
